<?xml version="1.0" encoding="iso-8859-1"?>
<!-- Generator: Adobe Illustrator 16.0.0, SVG Export Plug-In . SVG Version: 6.00 Build 0)  -->
<!DOCTYPE svg PUBLIC "-//W3C//DTD SVG 1.1//EN" "http://www.w3.org/Graphics/SVG/1.1/DTD/svg11.dtd">
<svg version="1.1" id="Capa_1" xmlns="http://www.w3.org/2000/svg" xmlns:xlink="http://www.w3.org/1999/xlink" x="0px" y="0px"
	 width="516.4px" height="516.4px" viewBox="0 0 516.4 516.4" style="enable-background:new 0 0 516.4 516.4;" xml:space="preserve"
	>
<g>
	<path d="M459.101,170.2c0-57.4-47.801-103.3-105.2-103.3c-21,0-38.2,5.7-55.5,15.3c-24.9-32.5-63.1-53.5-107.1-53.5
		C116.7,28.7,57.4,88,57.4,162.6c0,1.9,0,5.7,0,7.6C23,185.5,0,218,0,258.201C0,311.7,42.1,353.8,95.6,353.8h105.2L153,487.7
		l133.9-133.9H420.8c53.5,0,95.601-42.1,95.601-95.599C516.5,218,493.5,185.5,459.101,170.2z M200.9,413.101l28.7-78.4h-49.7
		l44-114.8h74.6l-28.8,76.5h47.8L200.9,413.101z M420.8,334.7H306.101l57.399-57.4h-66.899l28.699-76.5H210.5l-49.8,133.9h-65
		c-42.1,0-76.5-34.4-76.5-76.5c0-36.301,24.9-66.9,59.3-74.601c-1.9-7.7-1.9-13.4-1.9-21c0-63.1,51.6-114.8,114.8-114.8
		c44,0,84.1,24.9,103.3,63.1C310,95.6,331,86,354,86c47.8,0,86.101,38.2,86.101,86.1c0,3.8,0,7.6,0,11.5
		c32.5,7.6,57.399,38.2,57.399,74.601C497.3,300.3,462.9,334.7,420.8,334.7z"/>
</g>
<g>
</g>
<g>
</g>
<g>
</g>
<g>
</g>
<g>
</g>
<g>
</g>
<g>
</g>
<g>
</g>
<g>
</g>
<g>
</g>
<g>
</g>
<g>
</g>
<g>
</g>
<g>
</g>
<g>
</g>
</svg>
