<?xml version="1.0" encoding="iso-8859-1"?>
<!-- Generator: Adobe Illustrator 16.0.0, SVG Export Plug-In . SVG Version: 6.00 Build 0)  -->
<!DOCTYPE svg PUBLIC "-//W3C//DTD SVG 1.1//EN" "http://www.w3.org/Graphics/SVG/1.1/DTD/svg11.dtd">
<svg version="1.1" id="Capa_1" xmlns="http://www.w3.org/2000/svg" xmlns:xlink="http://www.w3.org/1999/xlink" x="0px" y="0px"
	 width="592.601px" height="592.601px" viewBox="0 0 592.601 592.601" style="enable-background:new 0 0 592.601 592.601;"
	 xml:space="preserve">
<g>
	<path d="M306.1,66.85v-28.7c0-5.7-3.8-9.6-9.6-9.6s-9.6,3.8-9.6,9.6v28.7C128.2,70.65,0,154.85,0,258.05c0-21,21-38.2,47.8-38.2
		c26.8,0,47.8,17.2,47.8,38.2c0-21,21-38.2,47.8-38.2c26.8,0,47.8,17.2,47.8,38.2c0-21,21-38.2,47.8-38.2s47.8,17.2,47.8,38.2v212.3
		v55.5c0,9.6-7.6,19.1-19.1,19.1s-19.1-7.6-19.1-19.1v-17.2v-11.5c0-5.7-3.8-9.6-9.6-9.6s-9.6,3.8-9.6,9.6v13.4v15.3
		c0,21,17.2,38.2,38.2,38.2c21,0,38.2-17.2,38.2-38.2v-28.7v-239c0-21,21-38.2,47.8-38.2c26.801,0,47.801,17.2,47.801,38.2
		c0-21,21-38.2,47.8-38.2s47.8,17.2,47.8,38.2c0-21,21-38.2,47.8-38.2s47.8,17.2,47.8,38.2C593,154.85,464.9,70.65,306.1,66.85z
		 M84.3,210.25c-11.5-5.7-23-9.6-36.3-9.6c-3.8,0-9.6,0-13.4,1.9c21-40.2,66.9-74.6,124.3-93.7
		C122.5,133.75,95.8,168.25,84.3,210.25z M176.1,208.35c-9.6-5.7-21-7.6-32.5-7.6c-15.3,0-28.7,3.8-40.2,11.5
		c17.2-55.5,66.9-99.5,128.1-116.7C204.8,120.35,185.6,160.55,176.1,208.35z M287,217.95c-11.5-11.5-28.7-17.2-47.8-17.2
		c-17.2,0-32.5,5.7-44,15.3c9.6-70.8,47.8-122.4,91.8-130V217.95z M353.9,200.75c-19.101,0-36.301,5.7-47.801,17.2v-132
		c44,5.7,82.2,59.3,91.801,128.1C386.5,206.45,371.1,200.75,353.9,200.75z M449.6,200.75c-11.5,0-23,1.9-32.5,7.6
		c-7.699-47.8-28.699-88-55.5-112.8c63.101,19.1,110.9,63.1,128.101,116.7C478.2,204.55,464.9,200.75,449.6,200.75z M545.2,200.75
		c-13.4,0-24.9,3.8-36.3,9.6c-11.5-40.2-40.2-76.5-76.5-101.4c57.399,21,103.3,53.5,126.199,93.7
		C554.8,200.75,549,200.75,545.2,200.75z"/>
</g>
<g>
</g>
<g>
</g>
<g>
</g>
<g>
</g>
<g>
</g>
<g>
</g>
<g>
</g>
<g>
</g>
<g>
</g>
<g>
</g>
<g>
</g>
<g>
</g>
<g>
</g>
<g>
</g>
<g>
</g>
</svg>
